<svg width="268" height="219" viewBox="0 0 268 219" fill="none" xmlns="http://www.w3.org/2000/svg">
<path fill-rule="evenodd" clip-rule="evenodd" d="M28.4444 129.709C19.5768 179.384 53.6535 162.634 86.0958 174.449C118.084 186.099 189.751 120.74 147.5 117.614C146.979 117.576 147.024 117.646 146.503 117.985C147.096 118.812 126.13 121.743 122.574 122.725C55.3758 141.286 77.9154 122.692 28.4444 129.709Z" fill="#67A54D"/>
<path fill-rule="evenodd" clip-rule="evenodd" d="M77.8126 96.1578C76.5449 95.3615 73.0609 95.5818 71.2623 95.7357C68.7545 95.9496 69.4571 97.8635 69.4462 100.4C69.4367 102.918 68.8082 104.461 71.5983 104.527C73.2696 104.565 76.3786 104.752 77.7419 104.245C78.7813 102.857 78.7302 97.2822 77.8126 96.1578ZM59.3299 96.1163C59.0328 97.2433 58.6881 103.268 59.5468 104.099C60.3114 104.838 66.2971 104.54 67.5515 104.332C68.2443 102.346 68.2375 97.7569 67.4744 95.8967C65.3288 95.583 61.0212 95.4023 59.3299 96.1163ZM67.5613 85.8076C66.2808 85.5275 60.3689 85.1764 59.517 86.0461C58.7055 86.8742 59.0154 92.7933 59.3424 93.9763C60.7506 94.5908 66.0937 95.0036 67.3659 93.9003C68.2171 92.9898 67.9102 91.272 67.8909 89.7704C67.8709 88.2703 67.9737 86.9789 67.5613 85.8076ZM70.1556 85.7433C68.9019 87.5292 69.4281 93.2468 69.6794 93.6645C70.4073 94.8826 76.5366 94.79 77.7086 93.9513C78.1905 93.4755 77.7993 94.4544 78.2087 93.1867C78.3984 92.5975 78.6565 87.2211 77.6217 85.5929L70.1556 85.7433ZM128.289 64.6641C129.809 66.1416 133.788 73.4742 135.778 73.9089C139.106 74.6342 146.946 75.3685 150.536 75.6002C150.206 74.7702 147.601 71.784 146.836 70.9215C145.031 68.8859 144.56 68.9384 141.274 68.0725C137.402 67.0524 132.138 65.2995 128.289 64.6641ZM119.345 83.3962C119.963 83.3032 119.812 84.1412 120.544 82.186L120.9 81.076C119.438 82.2423 121.731 80.8375 123.462 80.6334L125.351 80.1432C127.643 79.108 126.53 80.3843 127.022 78.8037C129.208 79.0021 127.063 79.2221 128.652 78.9795C129.209 78.8937 129.268 78.8192 129.453 78.7096L130.141 76.508L112.868 74.6013C113.348 75.4925 118.187 82.4049 119.345 83.3962ZM91.9911 90.1049C92.3105 90.998 95.4698 94.6668 96.443 95.8661L98.1453 97.5899C98.5471 97.2104 98.1608 97.4501 98.5577 97.102C100.026 95.8169 99.7286 98.0117 99.7788 95.3762L103.172 94.6407C105.297 93.8024 104.687 93.9441 105.119 93.1644C106.608 93.0851 107.431 93.3493 108.731 92.7555C108.757 92.7434 108.755 92.664 109.329 92.4195C111.704 91.4051 114.032 91.0233 116.813 90.8045C116.735 90.7361 116.595 90.5698 116.546 90.6484L115.06 89.7617C115.035 89.7402 114.982 89.6567 114.957 89.6359C114.934 89.6155 114.873 89.5376 114.847 89.5206C113.996 88.9253 114.264 89.3169 114.118 89.4469H119.261C118.44 88.6974 118.505 88.9434 117.055 88.9347L109.951 88.8837C98.6041 88.7564 103.861 88.2567 101.604 87.8353C101.194 87.6928 101.067 87.6569 100.701 87.5469C99.9761 87.3288 99.7573 87.4097 99.1945 86.8568L98.7104 88.1683C97.5296 87.454 98.5834 86.9467 96.259 87.9819C96.1856 88.0148 96.1055 88.0568 96.0318 88.0893C94.6319 88.7035 93.5195 88.8807 91.9552 88.8369L91.9911 90.1049ZM119.345 83.3962C119.562 84.1102 119.139 83.3176 119.836 84.3914C120.857 85.9625 121.184 85.7641 122.486 85.7887L139.883 85.8957C139.3 84.6378 136.831 81.6406 135.822 80.3265C132.789 76.3776 134.24 77.115 130.141 76.508L129.453 78.7096C129.268 78.8192 129.209 78.8937 128.652 78.9795C127.063 79.2221 129.208 79.0021 127.022 78.8037C126.53 80.3843 127.643 79.108 125.351 80.1432L123.462 80.6334C121.731 80.8375 119.438 82.2423 120.9 81.076L120.544 82.186C119.812 84.1412 119.963 83.3032 119.345 83.3962ZM82.2788 78.2251C82.8136 79.5094 84.118 80.7808 85.0043 81.8663C86.0482 83.1453 86.9243 84.2296 87.8313 85.3567C87.9066 85.2773 88.085 85.1239 88.1337 85.2229L88.8325 85.0694C89.8508 85.3453 89.034 85.5453 89.0158 85.5842C88.907 85.0279 89.1171 85.4342 88.6254 85.0415C88.6224 85.0377 87.5305 84.368 87.405 84.2928C88.7373 82.7734 86.9798 84.1174 88.379 83.6899C90.46 83.0527 87.834 84.2727 90.0189 83.5652C92.908 82.6275 90.6274 82.8966 92.8449 82.4192C93.8363 82.2068 93.3702 82.4805 94.3514 82.0942L100.573 79.6315C104.53 77.99 102.718 78.9432 104.463 78.3388C104.529 78.315 104.61 78.2757 104.673 78.2496C104.76 78.2126 104.994 78.0807 105.08 78.0369L107.762 76.7537C108.407 76.5999 108.08 76.6978 108.566 76.663L109.988 76.4105C108.057 73.3949 108.541 74.0079 104.419 73.5086C102.042 73.2206 98.5811 72.4806 96.3353 72.817C94.9493 73.1802 94.9822 72.8487 93.5245 72.6786L92.4843 73.6065C91.4166 74.8469 93.2535 74.1284 91.078 74.7453C89.3953 75.2219 90.5201 74.5306 89.0158 75.5904C88.9607 75.6293 88.89 75.6902 88.8348 75.7276L87.3706 76.525C85.6373 77.4136 86.3955 76.9812 85.3671 76.9941L82.5725 77.3286C82.215 77.8513 82.1503 76.5802 82.2788 78.2251ZM106.988 66.6608C107.394 67.3986 109.609 70.6222 110.459 70.9019L130.38 73.1567C129.179 71.2152 127.287 68.9142 125.886 67.0691C123.718 64.2129 123.2 62.3919 119.791 62.537C119.688 62.537 119.26 62.5978 119.061 62.6322L118.148 62.7528C115.979 62.4384 116.972 61.8253 114.344 62.9233C114.274 62.9535 114.191 62.9906 114.119 63.02C112.069 63.8368 112.711 62.6232 112.516 64.2862C111.3 64.2949 109.479 64.1157 108.569 64.5889C107.861 64.957 107.744 65.6045 107.742 65.6082L106.988 66.6608ZM30.1447 92.9017C29.2898 93.2668 26.5965 96.9988 25.7862 98.0476C24.7317 99.4139 22.3241 102.061 21.7262 103.444C22.3615 103.808 23.2301 103.734 23.3351 103.712C25.4279 103.282 24.0461 102.707 25.929 103.009C26.8853 103.161 26.5254 103.241 27.1264 103.176C29.2157 102.949 29.8182 102.102 30.5038 100.831C31.559 100.831 32.5364 100.75 33.0984 100.57C34.896 99.9952 33.8487 100.165 34.9043 99.2272C35.2478 99.7147 35.2751 99.7227 35.7006 99.9993C37.2022 99.031 38.7643 96.495 39.9031 95.0958C41.1878 93.5163 42.6017 91.8628 43.7227 90.1582C43.2846 89.6899 43.1463 89.8154 43.0877 89.7886C41.5725 89.1022 44.4688 90.7406 42.7514 89.6695L41.6462 88.7964C41.6697 91.3843 41.5498 89.0485 42.2857 90.6934C40.7225 90.2686 41.9811 89.9983 40.552 90.2633L38.7828 90.7195C31.9472 91.8412 34.6976 91.2943 33.6158 92.9656L30.1447 92.9017ZM87.8313 85.3567C88.7566 86.2691 89.062 86.7918 89.935 87.8784C90.3757 88.4261 90.4385 88.5901 90.9309 89.1279C91.4971 89.7481 91.4151 89.6733 91.9911 90.1049L91.9552 88.8369C93.5195 88.8807 94.6319 88.7035 96.0318 88.0893C96.1055 88.0568 96.1856 88.0148 96.259 87.9819C98.5834 86.9467 97.5296 87.454 98.7104 88.1683L99.1945 86.8568C99.7573 87.4097 99.9761 87.3288 100.701 87.5469C101.067 87.6569 101.194 87.6928 101.604 87.8353L100.187 85.5313L116.627 85.5812C115.944 84.2633 114.264 82.1838 113.335 80.9127C112.192 79.3491 111.084 78.0006 109.988 76.4105L108.566 76.663C108.08 76.6978 108.407 76.5999 107.762 76.7537L105.08 78.0369C104.994 78.0807 104.76 78.2126 104.673 78.2496C104.61 78.2757 104.529 78.315 104.463 78.3388C102.718 78.9432 104.53 77.99 100.573 79.6315L94.3514 82.0942C93.3702 82.4805 93.8363 82.2068 92.8449 82.4192C90.6274 82.8966 92.908 82.6275 90.0189 83.5652C87.834 84.2727 90.46 83.0527 88.379 83.6899C86.9798 84.1174 88.7373 82.7734 87.405 84.2928C87.5305 84.368 88.6224 85.0377 88.6254 85.0415C89.1171 85.4342 88.907 85.0279 89.0158 85.5842C89.034 85.5453 89.8508 85.3453 88.8325 85.0694L88.1337 85.2229C88.085 85.1239 87.9066 85.2773 87.8313 85.3567ZM21.7262 103.444C21.1725 103.765 13.2831 113.428 13.1489 114.396C16.3041 114.891 20.4321 115.621 23.6307 115.539L29.8038 107.858C30.661 106.766 35.385 101.372 35.7006 99.9993C35.2751 99.7227 35.2478 99.7147 34.9043 99.2272C33.8487 100.165 34.896 99.9952 33.0984 100.57C32.5364 100.75 31.559 100.831 30.5038 100.831C29.8182 102.102 29.2157 102.949 27.1264 103.176C26.5254 103.241 26.8853 103.161 25.929 103.009C24.0461 102.707 25.4279 103.282 23.3351 103.712C23.2301 103.734 22.3615 103.808 21.7262 103.444ZM98.1453 97.5899C98.2829 98.1765 98.0973 97.6908 98.4976 98.3265L102.153 102.964C107.732 102.057 113.517 100.502 119.987 99.5345C121.102 99.3666 122.038 99.2264 123.156 99.0798L126.08 98.4671C125.504 97.3314 123.603 94.9 122.718 93.7503C122.051 92.881 121.66 92.3552 120.937 91.3469C120.607 90.8869 120.539 90.7251 120.124 90.1979C119.421 89.3078 119.939 89.6295 119.261 89.4469H114.118C114.264 89.3169 113.996 88.9253 114.847 89.5206C114.873 89.5376 114.934 89.6155 114.957 89.6359C114.982 89.6567 115.035 89.7402 115.06 89.7617L116.546 90.6484C116.595 90.5698 116.735 90.7361 116.813 90.8045C114.032 91.0233 111.704 91.4051 109.329 92.4195C108.755 92.664 108.757 92.7434 108.731 92.7555C107.431 93.3493 106.608 93.0851 105.119 93.1644C104.687 93.9441 105.297 93.8024 103.172 94.6407L99.7788 95.3762C99.7286 98.0117 100.026 95.8169 98.5577 97.102C98.1608 97.4501 98.5471 97.2104 98.1453 97.5899ZM123.449 89.0501C124.196 90.6715 125.495 92.0585 126.675 93.6558C127.584 94.8868 129.253 96.9912 129.83 98.2309C132.892 98.1481 136.034 97.7959 139.154 97.647C142.275 97.4996 145.468 97.6254 148.573 97.5007C147.952 96.1726 143.508 90.4239 142.423 89.2352L123.449 89.0501ZM146.852 89.2817C147.06 89.5637 147.434 90.4666 147.779 90.9364C151.77 96.3585 151.766 97.6356 155.692 97.8749C160.956 98.1957 165.475 99.1478 170.536 99.8145L162.282 89.4609L146.852 89.2817ZM137.928 77.4828C138.45 78.642 140.367 81.0144 141.168 82.0659C145.118 87.251 142.288 86.3435 159.237 86.1576C158.477 84.7667 156.979 83.16 155.88 81.8519C154.173 79.8212 154.819 79.3608 151.268 78.9825C146.883 78.5135 142.352 77.8173 137.928 77.4828ZM46.492 72.1642L45.8702 72.7255C43.1406 75.5738 30.4168 92.2169 30.1447 92.9017L33.6158 92.9656C34.6976 91.2943 31.9472 91.8412 38.7828 90.7195L40.552 90.2633C41.9811 89.9983 40.7225 90.2686 42.2857 90.6934C41.5498 89.0485 41.6697 91.3843 41.6462 88.7964L42.7514 89.6695C44.4688 90.7406 41.5725 89.1022 43.0877 89.7886C43.1463 89.8154 43.2846 89.6899 43.7227 90.1582L57.258 73.1514C58.1484 72.0387 61.2091 68.483 61.4355 67.4251C61.2684 66.4621 61.3232 67.2213 60.6871 66.7973C60.6588 66.7784 60.573 66.7266 60.5461 66.7051C59.1152 65.5157 61.5935 66.8071 59.9138 65.8433C59.8658 67.1873 59.7899 67.4239 60.3099 68.723L58.6231 68.7052C57.2289 68.2857 59.4384 68.4138 58.0936 68.3813C57.3812 69.2944 54.3659 70.3845 53.0782 70.6751C53.006 70.6902 52.9126 70.7178 52.8438 70.725C51.4987 70.8898 52.6949 70.8591 51.5176 70.3092C52.0736 71.5013 51.8218 70.1989 52.1068 71.8842C50.9405 71.9072 50.8021 72.1238 49.7204 72.2054C49.2714 71.606 49.3054 73.097 49.2291 70.9427C49.3164 73.1643 48.7986 71.9836 48.1655 72.1676C47.2891 72.422 46.9587 72.473 46.492 72.1642ZM89.9827 68.5608L105.269 70.2525C104.757 68.9921 100.378 63.0023 99.6231 62.5461C95.8806 60.8472 98.0784 60.665 96.1002 60.5062L95.1799 62.4134C94.9047 62.8541 94.4595 63.3632 93.9784 63.7933C92.8109 64.8391 91.4026 64.7726 89.7128 64.7333C89.7872 66.2795 89.8024 65.877 89.5805 67.2886C89.3991 68.4402 88.7275 67.278 89.9827 68.5608ZM106.988 66.6608L107.742 65.6082C107.744 65.6045 107.861 64.957 108.569 64.5889C109.479 64.1157 111.3 64.2949 112.516 64.2862C112.711 62.6232 112.069 63.8368 114.119 63.02C114.191 62.9906 114.274 62.9535 114.344 62.9233C116.972 61.8253 115.979 62.4384 118.148 62.7528L119.061 62.6322C119.26 62.5978 119.688 62.537 119.791 62.537C118.914 61.6957 102.425 57.4025 100.18 57.1145C100.705 58.5254 105.902 65.3856 106.988 66.6608ZM46.492 72.1642C46.9587 72.473 47.2891 72.422 48.1655 72.1676C48.7986 71.9836 49.3164 73.1643 49.2291 70.9427C49.3054 73.097 49.2714 71.606 49.7204 72.2054C50.8021 72.1238 50.9405 71.9072 52.1068 71.8842C51.8218 70.1989 52.0736 71.5013 51.5176 70.3092C52.6949 70.8591 51.4987 70.8898 52.8438 70.725C52.9126 70.7178 53.006 70.6902 53.0782 70.6751C54.3659 70.3845 57.3812 69.2944 58.0936 68.3813C59.4384 68.4138 57.2289 68.2857 58.6231 68.7052L60.3099 68.723C59.7899 67.4239 59.8658 67.1873 59.9138 65.8433C61.5935 66.8071 59.1152 65.5157 60.5461 66.7051C60.573 66.7266 60.6588 66.7784 60.6871 66.7973C61.3232 67.2213 61.2684 66.4621 61.4355 67.4251C63.1204 66.6189 65.6187 61.9054 67.4343 60.5323C68.5138 61.3075 68.7481 61.9833 69.7845 63.0639C71.6723 63.4717 69.7913 63.4887 71.9618 63.299L73.4661 63.3107C75.9084 62.9724 73.3232 62.5128 77.757 61.7701C78.7884 61.5985 78.0397 61.8329 78.7472 61.4621C82.4436 59.5202 79.8543 61.8555 83.1825 59.7772L84.073 59.3996C85.265 59.0152 85.1698 59.2231 85.7942 58.251C86.9983 58.6312 86.1222 58.6373 87.3891 58.8293C88.2785 57.2997 87.9292 57.9872 89.2252 57.7381C93.6522 56.8904 90.6195 58.3062 93.3423 57.8217C93.792 55.9089 93.032 55.6144 92.6597 55.2055C92.6053 55.1442 92.2961 54.8139 92.2341 54.7266C87.3022 53.9 81.7327 51.9109 76.8631 50.6973C68.6918 48.6612 66.6085 46.5401 63.0614 50.9308C61.8765 52.3999 47.0717 70.8459 46.492 72.1642ZM69.7845 63.0639C70.2951 63.8995 71.0502 64.6358 71.7169 65.5164C72.3511 66.3555 73.0897 67.2678 73.7348 68.0113C75.1703 69.6656 76.2059 71.366 77.7033 72.7312C77.7132 70.957 77.6421 72.2496 78.0639 71.7387L79.5425 72.1204C79.575 72.1389 79.657 72.1873 79.6861 72.2081C80.1676 72.5558 79.9102 73.1231 82.0419 74.2021C82.7705 74.5695 81.8053 74.6398 82.7974 74.3681C82.8242 74.3613 83.3171 74.0143 83.3964 73.8208C83.9116 72.572 82.1193 71.8679 81.4844 70.9004C80.0508 68.7139 81.9251 68.8934 81.4129 67.4167L82.3469 68.4153C85.2238 70.9941 84.9147 69.6709 87.4092 70.4415L86.0164 68.1024L89.9827 68.5608C88.7275 67.278 89.3991 68.4402 89.5805 67.2886C89.8024 65.877 89.7872 66.2795 89.7128 64.7333C91.4026 64.7726 92.8109 64.8391 93.9784 63.7933C94.4595 63.3632 94.9047 62.8541 95.1799 62.4134L96.1002 60.5062C98.0784 60.665 95.8806 60.8472 99.6231 62.5461C99.0656 61.1008 97.3539 59.1808 96.412 57.8833C96.0953 57.4464 95.1372 56.0041 94.7384 55.7074C93.7777 54.9946 93.0565 55.3782 92.2341 54.7266C92.2961 54.8139 92.6053 55.1442 92.6597 55.2055C93.032 55.6144 93.792 55.9089 93.3423 57.8217C90.6195 58.3062 93.6522 56.8904 89.2252 57.7381C87.9292 57.9872 88.2785 57.2997 87.3891 58.8293C86.1222 58.6373 86.9983 58.6312 85.7942 58.251C85.1698 59.2231 85.265 59.0152 84.073 59.3996L83.1825 59.7772C79.8543 61.8555 82.4436 59.5202 78.7472 61.4621C78.0397 61.8329 78.7884 61.5985 77.757 61.7701C73.3232 62.5128 75.9084 62.9724 73.4661 63.3107L71.9618 63.299C69.7913 63.4887 71.6723 63.4717 69.7845 63.0639ZM77.7033 72.7312C78.2105 73.7769 81.4284 77.5984 82.2788 78.2251C82.1503 76.5802 82.215 77.8513 82.5725 77.3286L85.3671 76.9941C86.3955 76.9812 85.6373 77.4136 87.3706 76.525L88.8348 75.7276C88.89 75.6902 88.9607 75.6293 89.0158 75.5904C90.5201 74.5306 89.3953 75.2219 91.078 74.7453C93.2535 74.1284 91.4166 74.8469 92.4843 73.6065L93.5245 72.6786C94.9822 72.8487 94.9493 73.1802 96.3353 72.817C95.3473 72.1298 92.7334 72.1306 91.2877 71.9836C90.5624 71.9098 89.4418 71.883 88.8371 71.5905C87.6227 71.0032 88.5623 70.756 87.4092 70.4415C84.9147 69.6709 85.2238 70.9941 82.3469 68.4153L81.4129 67.4167C81.9251 68.8934 80.0508 68.7139 81.4844 70.9004C82.1193 71.8679 83.9116 72.572 83.3964 73.8208C83.3171 74.0143 82.8242 74.3613 82.7974 74.3681C81.8053 74.6398 82.7705 74.5695 82.0419 74.2021C79.9102 73.1231 80.1676 72.5558 79.6861 72.2081C79.657 72.1873 79.575 72.1389 79.5425 72.1204L78.0639 71.7387C77.6421 72.2496 77.7132 70.957 77.7033 72.7312Z" fill="url(#paint0_linear_803_25)"/>
<path fill-rule="evenodd" clip-rule="evenodd" d="M107.609 200.644L102.347 179.385C66.2258 180.181 32.9935 155.926 23.9581 119.422C13.4956 77.1524 39.3726 34.2532 81.6414 23.7907C123.909 13.3286 166.81 39.2041 177.272 81.474C186.308 117.978 168.227 154.933 135.905 171.079L141.167 192.338C184.983 173.028 210 124.353 198.11 76.3161C184.803 22.5579 130.242 -10.3524 76.4834 2.95381C22.7253 16.26 -10.1839 70.8214 3.12233 124.58C15.0127 172.617 59.8444 204.002 107.609 200.644Z" fill="url(#paint1_linear_803_25)"/>
<path fill-rule="evenodd" clip-rule="evenodd" d="M0 98.9743C0 98.9743 16.7531 231.385 126.456 127.724C213.4 45.568 267.618 95.2133 267.618 95.2133C267.618 95.2133 261.177 163.377 185.981 200.349C99.8843 242.68 2.08139 214.17 0 98.9743Z" fill="url(#paint2_linear_803_25)"/>
<path fill-rule="evenodd" clip-rule="evenodd" d="M127.257 129.767C205.622 56.1828 257.558 88.3262 267.546 95.8362C267.597 95.4348 267.618 95.2133 267.618 95.2133C267.618 95.2133 213.4 45.568 126.456 127.724C16.7531 231.385 0 98.9743 0 98.9743C0.0170079 99.8621 0.0566931 100.729 0.0827718 101.606C1.46646 111.04 21.1884 229.363 127.257 129.767Z" fill="url(#paint3_linear_803_25)"/>
<defs>
<linearGradient id="paint0_linear_803_25" x1="-168.291" y1="100.089" x2="316.166" y2="100.089" gradientUnits="userSpaceOnUse">
<stop stop-color="#0278C3"/>
<stop offset="0.258824" stop-color="#4E98DA"/>
<stop offset="1" stop-color="#9BB8F2"/>
</linearGradient>
<linearGradient id="paint1_linear_803_25" x1="374.252" y1="198.948" x2="-106.398" y2="96.4129" gradientUnits="userSpaceOnUse">
<stop stop-color="#EFA034"/>
<stop offset="0.6" stop-color="#D76A35"/>
<stop offset="1" stop-color="#BF3437"/>
</linearGradient>
<linearGradient id="paint2_linear_803_25" x1="0" y1="153.505" x2="267.618" y2="153.505" gradientUnits="userSpaceOnUse">
<stop stop-color="#FBE022"/>
<stop offset="1" stop-color="#449E50"/>
</linearGradient>
<linearGradient id="paint3_linear_803_25" x1="133.81" y1="101.723" x2="133.81" y2="221.032" gradientUnits="userSpaceOnUse">
<stop stop-color="#FBEC68"/>
<stop offset="1" stop-color="#449E50"/>
</linearGradient>
</defs>
</svg>
